<?xml version="1.0" encoding="utf-8"?>
<!-- Generator: Adobe Illustrator 18.1.1, SVG Export Plug-In . SVG Version: 6.00 Build 0)  -->
<!DOCTYPE svg PUBLIC "-//W3C//DTD SVG 1.1//EN" "http://www.w3.org/Graphics/SVG/1.1/DTD/svg11.dtd">
<svg version="1.1" id="Layer_1" xmlns="http://www.w3.org/2000/svg" xmlns:xlink="http://www.w3.org/1999/xlink" x="0px" y="0px"
	 width="189px" height="50px" viewBox="0 0 189 50" enable-background="new 0 0 189 50" xml:space="preserve">
<g>
	<g>
		<g>
			<g>
				<circle fill="#CCCCCC" cx="25" cy="25" r="24.5"/>
				<path fill="#9E9E9E" d="M25,50C11.2,50,0,38.8,0,25S11.2,0,25,0s25,11.2,25,25S38.8,50,25,50z M25,1C11.8,1,1,11.8,1,25
					s10.8,24,24,24s24-10.8,24-24S38.2,1,25,1z"/>
			</g>
			<g>
				<circle fill="#FFFFFF" cx="25.2" cy="25.2" r="20.7"/>
				<path fill="#9E9E9E" d="M25.2,46.4C13.6,46.4,4,36.9,4,25.2C4,13.5,13.6,4,25.2,4s21.2,9.5,21.2,21.2
					C46.4,36.9,36.9,46.4,25.2,46.4z M25.2,4.9C14.1,4.9,5,14,5,25.2c0,11.2,9.1,20.2,20.2,20.2s20.2-9.1,20.2-20.2
					C45.5,14,36.4,4.9,25.2,4.9z"/>
			</g>
			<path fill="#204496" d="M41.9,31.4c0,0-2.5-3.7-5.5,0c-3,3.7-5.5,0-5.5,0s-2.4-3.7-5.5,0c-3,3.7-5.5,0-5.5,0s-2.5-3.7-5.5,0
				c-3,3.7-5.5,0-5.5,0v-4.1c0,0,2.4,3.7,5.5,0c3-3.7,5.5,0,5.5,0s2.5,3.7,5.5,0c3-3.7,5.5,0,5.5,0s2.4,3.7,5.5,0c3-3.7,5.5,0,5.5,0
				V31.4z"/>
			<path fill="#204496" d="M41.9,25.1c0,0-2.5-3.7-5.5,0c-3,3.7-5.5,0-5.5,0s-2.4-3.7-5.5,0c-3,3.7-5.5,0-5.5,0s-2.5-3.7-5.5,0
				c-3,3.7-5.5,0-5.5,0V21c0,0,2.4,3.7,5.5,0c3-3.7,5.5,0,5.5,0s2.5,3.7,5.5,0c3-3.7,5.5,0,5.5,0s2.4,3.7,5.5,0c3-3.7,5.5,0,5.5,0
				V25.1z"/>
		</g>
	</g>
</g>
<g>
	<path fill="#204694" d="M64.8,5c0.3-0.8,0.4-0.9,0.5-0.9c0.1,0,0.2,0.1,0.5,0.8c0.3,0.9,4,10.4,5.4,13.9c0.8,2.1,1.5,2.4,2,2.6
		c0.3,0.1,0.7,0.1,0.9,0.1c0.1,0,0.2,0,0.2,0.1c0,0.1-0.2,0.2-0.5,0.2c-0.3,0-2,0-3.6,0c-0.4,0-0.7,0-0.7-0.2c0-0.1,0.1-0.1,0.2-0.2
		c0.1,0,0.3-0.3,0.1-0.6l-2.1-5.7c0-0.1-0.1-0.1-0.2-0.1h-5c-0.1,0-0.2,0.1-0.2,0.2l-1.4,4.1c-0.2,0.6-0.3,1.1-0.3,1.5
		c0,0.5,0.5,0.7,0.9,0.7h0.2c0.2,0,0.2,0,0.2,0.1c0,0.1-0.1,0.2-0.3,0.2c-0.6,0-1.5-0.1-1.8-0.1c-0.3,0-1.5,0.1-2.6,0.1
		c-0.3,0-0.4,0-0.4-0.2c0-0.1,0.1-0.1,0.2-0.1c0.2,0,0.5,0,0.7,0c1.1-0.1,1.5-1,1.9-2.2L64.8,5z M67.2,14.2c0.1,0,0.1-0.1,0.1-0.2
		l-2.2-6.2c-0.1-0.3-0.2-0.3-0.3,0l-2,6.2c0,0.1,0,0.2,0.1,0.2H67.2z"/>
	<path fill="#204694" d="M97.5,11.1c0-3.6,0-4.2,0-5c0-0.8-0.2-1.2-1-1.3c-0.2,0-0.6-0.1-0.8-0.1c-0.1,0-0.2,0-0.2-0.1
		c0-0.1,0.1-0.2,0.4-0.2c1,0,2.4,0.1,2.7,0.1c0.2,0,1.6-0.1,2.3-0.1c0.2,0,0.4,0,0.4,0.2c0,0.1-0.1,0.1-0.2,0.1
		c-0.2,0-0.3,0-0.6,0.1c-0.6,0.1-0.8,0.5-0.9,1.3c0,0.7,0,1.4,0,5v3.2c0,3.3,0.7,4.8,1.7,5.7c1.1,1.1,2.2,1.3,3.5,1.3
		c1.4,0,2.8-0.7,3.6-1.7c1.1-1.3,1.3-3.3,1.3-5.7v-2.9c0-3.6,0-4.2,0-5c0-0.8-0.2-1.2-1-1.3c-0.2,0-0.6-0.1-0.8-0.1
		c-0.1,0-0.2,0-0.2-0.1c0-0.1,0.1-0.2,0.4-0.2c1,0,2.3,0.1,2.4,0.1c0.2,0,1.2-0.1,1.9-0.1c0.3,0,0.4,0,0.4,0.2
		c0,0.1-0.1,0.1-0.2,0.1c-0.2,0-0.3,0-0.6,0.1c-0.6,0.1-0.8,0.5-0.9,1.3c0,0.7,0,1.4,0,5v2.5c0,2.5-0.3,5.3-2.1,6.9
		c-1.7,1.5-3.4,1.7-4.7,1.7c-0.8,0-3.1-0.1-4.8-1.6c-1.1-1.1-2-2.7-2-6.1V11.1z"/>
	<path fill="#204694" d="M120.9,5c0.3-0.8,0.4-0.9,0.5-0.9c0.1,0,0.2,0.1,0.5,0.8c0.3,0.9,4,10.4,5.4,13.9c0.8,2.1,1.5,2.4,2,2.6
		c0.3,0.1,0.7,0.1,0.9,0.1c0.1,0,0.2,0,0.2,0.1c0,0.1-0.2,0.2-0.5,0.2c-0.3,0-2,0-3.6,0c-0.4,0-0.7,0-0.7-0.2c0-0.1,0.1-0.1,0.2-0.2
		c0.1,0,0.3-0.3,0.1-0.6l-2.1-5.7c0-0.1-0.1-0.1-0.2-0.1h-5c-0.1,0-0.2,0.1-0.2,0.2l-1.4,4.1c-0.2,0.6-0.3,1.1-0.3,1.5
		c0,0.5,0.5,0.7,0.9,0.7h0.2c0.2,0,0.2,0,0.2,0.1c0,0.1-0.1,0.2-0.3,0.2c-0.6,0-1.5-0.1-1.8-0.1c-0.3,0-1.5,0.1-2.6,0.1
		c-0.3,0-0.4,0-0.4-0.2c0-0.1,0.1-0.1,0.2-0.1c0.2,0,0.5,0,0.7,0c1.1-0.1,1.5-1,1.9-2.2L120.9,5z M123.3,14.2c0.1,0,0.1-0.1,0.1-0.2
		l-2.2-6.2c-0.1-0.3-0.2-0.3-0.3,0l-2,6.2c0,0.1,0,0.2,0.1,0.2H123.3z"/>
	<path fill="#204694" d="M133.7,11.1c0-3.6,0-4.2,0-5c-0.1-0.8-0.2-1.2-1-1.3c-0.2,0-0.6-0.1-0.8-0.1c-0.1,0-0.2,0-0.2-0.1
		c0-0.1,0.1-0.2,0.4-0.2c1,0,2.5,0.1,2.6,0.1c0.3,0,2-0.1,2.7-0.1c1.5,0,3,0.1,4.2,1c0.6,0.4,1.6,1.5,1.6,3.1c0,1.7-0.7,3.4-2.8,5.3
		c1.9,2.4,3.5,4.5,4.8,5.9c1.2,1.3,2.2,1.6,2.8,1.7c0.4,0.1,0.8,0.1,0.9,0.1c0.1,0,0.2,0.1,0.2,0.1c0,0.1-0.1,0.2-0.6,0.2H147
		c-1.3,0-1.9-0.1-2.5-0.4c-1-0.5-1.8-1.7-3.1-3.4c-1-1.3-2.1-2.8-2.5-3.4c-0.1-0.1-0.2-0.1-0.3-0.1l-2.8,0c-0.1,0-0.2,0.1-0.2,0.2
		v0.6c0,2.2,0,4,0.1,5c0.1,0.7,0.2,1.2,0.9,1.3c0.3,0,0.8,0.1,1,0.1c0.1,0,0.2,0.1,0.2,0.1c0,0.1-0.1,0.2-0.4,0.2
		c-1.3,0-2.7-0.1-2.8-0.1c0,0-1.5,0.1-2.2,0.1c-0.3,0-0.4,0-0.4-0.2c0-0.1,0-0.1,0.2-0.1c0.2,0,0.5,0,0.7-0.1
		c0.5-0.1,0.6-0.6,0.7-1.3c0.1-1,0.1-2.8,0.1-5V11.1z M135.6,13.1c0,0.1,0,0.2,0.2,0.3c0.3,0.2,1.4,0.4,2.4,0.4
		c0.6,0,1.2-0.1,1.7-0.4c0.8-0.6,1.4-1.8,1.4-3.6c0-2.9-1.5-4.6-4-4.6c-0.7,0-1.3,0.1-1.5,0.1c-0.1,0-0.2,0.1-0.2,0.3V13.1z"/>
	<path fill="#204694" d="M153.1,15.1c0,2.2,0,4,0.1,5c0.1,0.7,0.2,1.2,0.9,1.3c0.3,0,0.8,0.1,1,0.1c0.1,0,0.2,0.1,0.2,0.1
		c0,0.1-0.1,0.2-0.4,0.2c-1.3,0-2.7-0.1-2.8-0.1c-0.1,0-1.6,0.1-2.3,0.1c-0.3,0-0.4,0-0.4-0.2c0-0.1,0-0.1,0.2-0.1
		c0.2,0,0.5,0,0.7-0.1c0.5-0.1,0.6-0.6,0.7-1.3c0.1-1,0.1-2.8,0.1-5v-4.1c0-3.6,0-4.2,0-5c0-0.8-0.3-1.2-0.8-1.3
		c-0.3-0.1-0.6-0.1-0.7-0.1c-0.1,0-0.2,0-0.2-0.1c0-0.1,0.1-0.2,0.4-0.2c0.8,0,2.2,0.1,2.3,0.1c0.1,0,1.6-0.1,2.3-0.1
		c0.2,0,0.4,0,0.4,0.2c0,0.1-0.1,0.1-0.2,0.1c-0.2,0-0.3,0-0.6,0.1c-0.6,0.1-0.8,0.5-0.9,1.3c0,0.7,0,1.4,0,5V15.1z"/>
	<path fill="#204694" d="M160,11.1c0-3.6,0-4.2,0-5c0-0.8-0.2-1.2-1-1.3c-0.2,0-0.6-0.1-0.8-0.1c-0.1,0-0.2,0-0.2-0.1
		c0-0.1,0.1-0.2,0.4-0.2c1,0,2.4,0.1,2.7,0.1c0.2,0,1.6-0.1,2.3-0.1c0.3,0,0.4,0,0.4,0.2c0,0.1-0.1,0.1-0.2,0.1
		c-0.2,0-0.3,0-0.6,0.1c-0.6,0.1-0.8,0.5-0.9,1.3c0,0.7,0,1.4,0,5v3.2c0,3.3,0.7,4.8,1.7,5.7c1.1,1.1,2.2,1.3,3.5,1.3
		c1.4,0,2.8-0.7,3.6-1.7c1.1-1.3,1.3-3.3,1.3-5.7v-2.9c0-3.6,0-4.2,0-5c-0.1-0.8-0.2-1.2-1-1.3c-0.2,0-0.6-0.1-0.8-0.1
		c-0.1,0-0.2,0-0.2-0.1c0-0.1,0.1-0.2,0.4-0.2c1,0,2.3,0.1,2.4,0.1c0.2,0,1.2-0.1,1.9-0.1c0.3,0,0.4,0,0.4,0.2
		c0,0.1-0.1,0.1-0.2,0.1c-0.2,0-0.3,0-0.6,0.1c-0.6,0.1-0.8,0.5-0.9,1.3c0,0.7,0,1.4,0,5v2.5c0,2.5-0.3,5.3-2.1,6.9
		c-1.7,1.5-3.4,1.7-4.8,1.7c-0.8,0-3.1-0.1-4.8-1.6c-1.1-1.1-2-2.7-2-6.1V11.1z"/>
	<path fill="#204694" d="M179,21.5c-0.3-0.2-0.3-0.3-0.3-0.9c0-1.2,0.1-2.1,0.1-2.4c0-0.3,0.1-0.4,0.2-0.4c0.1,0,0.2,0.1,0.2,0.3
		c0,0.2,0,0.5,0.1,0.8c0.3,1.7,1.9,2.4,3.4,2.4c2.2,0,3.3-1.6,3.3-3.1c0-1.6-0.7-2.5-2.7-4.2l-1-0.9c-2.4-2-3-3.4-3-5
		c0-2.5,1.8-4.2,4.8-4.2c0.9,0,1.6,0.1,2.1,0.2c0.4,0.1,0.6,0.1,0.8,0.1c0.2,0,0.2,0,0.2,0.2c0,0.1-0.1,0.9-0.1,2.4
		c0,0.4,0,0.5-0.2,0.5c-0.1,0-0.2-0.1-0.2-0.3c0-0.3-0.2-0.9-0.3-1.2c-0.1-0.3-0.8-1.2-2.9-1.2c-1.6,0-2.8,1-2.8,2.7
		c0,1.3,0.6,2.1,2.8,3.9l0.6,0.5c2.7,2.1,3.4,3.6,3.4,5.4c0,0.9-0.4,2.7-2,3.8c-1,0.7-2.2,1-3.5,1C181,22.2,179.9,22,179,21.5z"/>
	<path fill="#204694" d="M87.6,21.4c-0.8,0.4-2.4,0.8-3.6,0.8c-6.4,0-9-4.9-9-9.1c0-3.7,2.7-9,9.1-9c5.2,0,9.1,3.3,9.1,8.6
		c0,4.1-2.6,6.7-4.1,7.7l4.7,2.4c5,2.6,8.5,2.7,9.7,2.7c1.2,0,2.9-0.2,4.5-0.9c0.1,0,0.3-0.1,0.3-0.1c0.1,0,0.1,0.1,0.1,0.1
		c0,0.1,0,0.2-0.2,0.2c-1.3,0.6-3.9,1.6-7.3,1.6c-2.8,0-5.8-1-9.5-3.1L87.6,21.4z M84.5,21.3c0.6,0,1.5-0.1,2.3-0.5
		c0,0-2.7-1.6-4.3-1.7c-0.7,0,0.1-1.2,4,0.1c0.8,0.3,1.6,0.8,1.7,0.7c1.4-1.1,2.6-3.1,2.6-6.6c0-5.5-3.4-8.5-7-8.5
		c-3.8,0-6.7,2.5-6.7,7.6C77.1,17.8,80.4,21.3,84.5,21.3z"/>
</g>
<g>
	<path fill="#6D7071" d="M67.6,29.3c0,0.1,0,0.3,0,0.4c0,0.1,0,0.2-0.1,0.2c0,0.1-0.1,0.1-0.1,0.1c0,0-0.1,0-0.2,0h-4v12.3
		c0,0.1,0,0.1,0,0.2c0,0-0.1,0.1-0.2,0.1c-0.1,0-0.2,0-0.3,0.1c-0.1,0-0.3,0-0.5,0c-0.2,0-0.3,0-0.5,0c-0.1,0-0.2,0-0.3-0.1
		c-0.1,0-0.1-0.1-0.2-0.1c0,0,0-0.1,0-0.2V30.1h-4c-0.1,0-0.1,0-0.2,0c0,0-0.1-0.1-0.1-0.1c0-0.1-0.1-0.1-0.1-0.2c0-0.1,0-0.2,0-0.4
		c0-0.1,0-0.3,0-0.4c0-0.1,0-0.2,0.1-0.3c0-0.1,0.1-0.1,0.1-0.1c0,0,0.1,0,0.2,0h9.9c0.1,0,0.1,0,0.2,0c0,0,0.1,0.1,0.1,0.1
		c0,0.1,0.1,0.2,0.1,0.3C67.5,29,67.6,29.1,67.6,29.3z"/>
	<path fill="#6D7071" d="M72.6,29.2c0,0.4-0.1,0.7-0.2,0.9c-0.2,0.2-0.5,0.2-0.9,0.2c-0.4,0-0.7-0.1-0.9-0.2
		c-0.2-0.2-0.2-0.4-0.2-0.9c0-0.4,0.1-0.7,0.2-0.9c0.2-0.2,0.5-0.2,0.9-0.2c0.4,0,0.7,0.1,0.9,0.2C72.5,28.5,72.6,28.8,72.6,29.2z
		 M72.3,42.4c0,0.1,0,0.1,0,0.1c0,0-0.1,0.1-0.1,0.1c-0.1,0-0.2,0.1-0.3,0.1c-0.1,0-0.3,0-0.5,0c-0.2,0-0.3,0-0.4,0
		c-0.1,0-0.2,0-0.3-0.1c-0.1,0-0.1-0.1-0.1-0.1c0,0,0-0.1,0-0.1v-9.9c0-0.1,0-0.1,0-0.1c0,0,0.1-0.1,0.1-0.1c0.1,0,0.2-0.1,0.3-0.1
		c0.1,0,0.3,0,0.4,0c0.2,0,0.3,0,0.5,0c0.1,0,0.2,0,0.3,0.1c0.1,0,0.1,0.1,0.1,0.1s0,0.1,0,0.1V42.4z"/>
	<path fill="#6D7071" d="M91.5,42.4c0,0.1,0,0.1,0,0.1c0,0-0.1,0.1-0.1,0.1c-0.1,0-0.2,0.1-0.3,0.1c-0.1,0-0.3,0-0.4,0
		c-0.2,0-0.3,0-0.5,0c-0.1,0-0.2,0-0.3-0.1c-0.1,0-0.1-0.1-0.1-0.1c0,0,0-0.1,0-0.1v-6c0-0.4,0-0.8-0.1-1.1
		c-0.1-0.3-0.2-0.6-0.4-0.9c-0.2-0.2-0.4-0.4-0.6-0.6c-0.2-0.1-0.5-0.2-0.9-0.2c-0.4,0-0.8,0.2-1.3,0.5c-0.4,0.3-0.9,0.8-1.4,1.4
		v6.9c0,0.1,0,0.1,0,0.1c0,0-0.1,0.1-0.1,0.1c-0.1,0-0.2,0.1-0.3,0.1c-0.1,0-0.3,0-0.4,0c-0.2,0-0.3,0-0.4,0c-0.1,0-0.2,0-0.3-0.1
		c-0.1,0-0.1-0.1-0.1-0.1c0,0,0-0.1,0-0.1v-6c0-0.4,0-0.8-0.1-1.1c-0.1-0.3-0.2-0.6-0.4-0.9s-0.4-0.4-0.6-0.6
		c-0.2-0.1-0.5-0.2-0.9-0.2c-0.4,0-0.8,0.2-1.3,0.5c-0.4,0.3-0.9,0.8-1.4,1.4v6.9c0,0.1,0,0.1,0,0.1c0,0-0.1,0.1-0.1,0.1
		c-0.1,0-0.2,0.1-0.3,0.1c-0.1,0-0.3,0-0.5,0c-0.2,0-0.3,0-0.4,0c-0.1,0-0.2,0-0.3-0.1c-0.1,0-0.1-0.1-0.1-0.1c0,0,0-0.1,0-0.1v-9.9
		c0-0.1,0-0.1,0-0.1c0,0,0.1-0.1,0.1-0.1c0.1,0,0.2-0.1,0.3-0.1c0.1,0,0.2,0,0.4,0c0.2,0,0.3,0,0.4,0c0.1,0,0.2,0,0.2,0.1
		c0.1,0,0.1,0.1,0.1,0.1c0,0,0,0.1,0,0.1v1.3c0.6-0.6,1.1-1.1,1.6-1.4c0.5-0.3,1.1-0.4,1.6-0.4c0.4,0,0.8,0,1.1,0.1
		c0.3,0.1,0.6,0.2,0.9,0.4c0.2,0.2,0.5,0.4,0.6,0.6c0.2,0.2,0.3,0.5,0.4,0.8c0.3-0.4,0.6-0.7,0.9-0.9c0.3-0.2,0.6-0.5,0.9-0.6
		c0.3-0.2,0.5-0.3,0.8-0.3c0.3-0.1,0.5-0.1,0.8-0.1c0.6,0,1.2,0.1,1.6,0.3c0.4,0.2,0.8,0.5,1.1,0.9c0.3,0.4,0.5,0.8,0.6,1.3
		c0.1,0.5,0.2,1,0.2,1.6V42.4z"/>
	<path fill="#6D7071" d="M104.4,37c0,0.3-0.1,0.5-0.2,0.6c-0.1,0.1-0.3,0.2-0.5,0.2h-6.5c0,0.5,0.1,1,0.2,1.5
		c0.1,0.4,0.3,0.8,0.6,1.1c0.3,0.3,0.6,0.6,1,0.7c0.4,0.2,0.9,0.3,1.5,0.3c0.5,0,0.9,0,1.3-0.1c0.4-0.1,0.7-0.2,1-0.3
		c0.3-0.1,0.5-0.2,0.7-0.3c0.2-0.1,0.3-0.1,0.4-0.1c0.1,0,0.1,0,0.1,0c0,0,0.1,0.1,0.1,0.1c0,0.1,0,0.1,0,0.2c0,0.1,0,0.2,0,0.3
		c0,0.1,0,0.2,0,0.2s0,0.1,0,0.2c0,0.1,0,0.1-0.1,0.1c0,0-0.1,0.1-0.1,0.1c0,0-0.2,0.1-0.4,0.2c-0.2,0.1-0.5,0.2-0.8,0.3
		s-0.7,0.2-1.1,0.2c-0.4,0.1-0.9,0.1-1.3,0.1c-0.8,0-1.5-0.1-2.1-0.3c-0.6-0.2-1.1-0.6-1.5-1c-0.4-0.4-0.7-1-0.9-1.7
		c-0.2-0.7-0.3-1.5-0.3-2.4c0-0.9,0.1-1.6,0.3-2.3c0.2-0.7,0.5-1.3,1-1.7c0.4-0.5,0.9-0.8,1.5-1.1c0.6-0.3,1.2-0.4,2-0.4
		c0.8,0,1.4,0.1,2,0.4c0.5,0.2,1,0.6,1.3,1c0.4,0.4,0.6,0.9,0.8,1.5c0.2,0.6,0.2,1.2,0.2,1.8V37z M102.6,36.5c0-1-0.2-1.7-0.6-2.2
		c-0.4-0.5-1.1-0.8-2-0.8c-0.5,0-0.8,0.1-1.2,0.3c-0.3,0.2-0.6,0.4-0.9,0.7s-0.4,0.6-0.5,1c-0.1,0.4-0.2,0.8-0.2,1.2H102.6z"/>
	<path fill="#6D7071" d="M112.8,37.1c0,0.3,0,0.5-0.1,0.6c-0.1,0.1-0.2,0.2-0.3,0.2h-4.6c-0.1,0-0.2-0.1-0.3-0.2
		c-0.1-0.1-0.1-0.3-0.1-0.6c0-0.3,0-0.5,0.1-0.6c0.1-0.1,0.2-0.2,0.3-0.2h4.6c0.1,0,0.1,0,0.2,0c0,0,0.1,0.1,0.1,0.1
		c0,0.1,0.1,0.1,0.1,0.2C112.7,36.9,112.8,37,112.8,37.1z"/>
	<path fill="#6D7071" d="M124.2,38.7c0,0.7-0.1,1.3-0.4,1.8c-0.2,0.5-0.6,1-1,1.3c-0.4,0.4-1,0.6-1.5,0.8c-0.6,0.2-1.2,0.3-1.9,0.3
		c-0.5,0-0.9,0-1.3-0.1c-0.4-0.1-0.8-0.2-1.1-0.3c-0.3-0.1-0.6-0.2-0.8-0.4c-0.2-0.1-0.4-0.2-0.5-0.3c-0.1-0.1-0.1-0.2-0.2-0.3
		c0-0.1-0.1-0.3-0.1-0.5c0-0.2,0-0.3,0-0.4c0-0.1,0-0.2,0.1-0.3s0.1-0.1,0.1-0.1c0,0,0.1,0,0.2,0c0.1,0,0.2,0.1,0.4,0.2
		c0.2,0.1,0.4,0.3,0.7,0.4s0.6,0.3,1.1,0.4c0.4,0.1,0.9,0.2,1.4,0.2c0.4,0,0.8-0.1,1.1-0.2c0.3-0.1,0.6-0.3,0.9-0.5
		c0.2-0.2,0.4-0.4,0.6-0.7c0.1-0.3,0.2-0.6,0.2-1c0-0.4-0.1-0.7-0.3-1c-0.2-0.3-0.4-0.5-0.7-0.8c-0.3-0.2-0.6-0.4-1-0.6
		c-0.4-0.2-0.8-0.4-1.2-0.6c-0.4-0.2-0.8-0.4-1.2-0.6s-0.7-0.5-1-0.8s-0.5-0.7-0.7-1.1c-0.2-0.4-0.3-0.9-0.3-1.5
		c0-0.6,0.1-1.1,0.3-1.6c0.2-0.5,0.5-0.9,0.9-1.2c0.4-0.3,0.8-0.6,1.4-0.7c0.5-0.2,1.1-0.2,1.7-0.2c0.3,0,0.6,0,1,0.1
		c0.3,0.1,0.6,0.1,0.9,0.2c0.3,0.1,0.5,0.2,0.8,0.3c0.2,0.1,0.4,0.2,0.4,0.3c0.1,0.1,0.1,0.1,0.1,0.2c0,0,0,0.1,0.1,0.2
		c0,0.1,0,0.1,0,0.2c0,0.1,0,0.2,0,0.3c0,0.1,0,0.2,0,0.4c0,0.1,0,0.2,0,0.3c0,0.1-0.1,0.1-0.1,0.2c0,0-0.1,0.1-0.1,0.1
		c-0.1,0-0.2-0.1-0.4-0.2c-0.2-0.1-0.4-0.2-0.6-0.3c-0.2-0.1-0.5-0.2-0.9-0.4c-0.3-0.1-0.7-0.2-1.2-0.2c-0.4,0-0.7,0.1-1,0.2
		c-0.3,0.1-0.5,0.2-0.7,0.4s-0.3,0.4-0.4,0.6c-0.1,0.2-0.1,0.5-0.1,0.8c0,0.4,0.1,0.7,0.3,1c0.2,0.3,0.4,0.5,0.7,0.8
		c0.3,0.2,0.7,0.4,1,0.6c0.4,0.2,0.8,0.4,1.2,0.6c0.4,0.2,0.8,0.4,1.2,0.6c0.4,0.2,0.7,0.5,1,0.8c0.3,0.3,0.6,0.7,0.7,1.1
		C124.1,37.6,124.2,38.1,124.2,38.7z"/>
	<path fill="#6D7071" d="M136.3,37c0,0.3-0.1,0.5-0.2,0.6c-0.1,0.1-0.3,0.2-0.5,0.2H129c0,0.5,0.1,1,0.2,1.5
		c0.1,0.4,0.3,0.8,0.6,1.1c0.3,0.3,0.6,0.6,1,0.7c0.4,0.2,0.9,0.3,1.5,0.3c0.5,0,0.9,0,1.3-0.1s0.7-0.2,1-0.3
		c0.3-0.1,0.5-0.2,0.7-0.3c0.2-0.1,0.3-0.1,0.4-0.1c0.1,0,0.1,0,0.1,0c0,0,0.1,0.1,0.1,0.1c0,0.1,0,0.1,0,0.2c0,0.1,0,0.2,0,0.3
		c0,0.1,0,0.2,0,0.2s0,0.1,0,0.2c0,0.1,0,0.1-0.1,0.1c0,0-0.1,0.1-0.1,0.1c0,0-0.2,0.1-0.4,0.2c-0.2,0.1-0.5,0.2-0.8,0.3
		s-0.7,0.2-1.1,0.2c-0.4,0.1-0.9,0.1-1.3,0.1c-0.8,0-1.5-0.1-2.1-0.3c-0.6-0.2-1.1-0.6-1.5-1c-0.4-0.4-0.7-1-0.9-1.7
		c-0.2-0.7-0.3-1.5-0.3-2.4c0-0.9,0.1-1.6,0.3-2.3c0.2-0.7,0.5-1.3,1-1.7c0.4-0.5,0.9-0.8,1.5-1.1c0.6-0.3,1.2-0.4,2-0.4
		c0.8,0,1.4,0.1,2,0.4c0.5,0.2,1,0.6,1.3,1s0.6,0.9,0.8,1.5c0.2,0.6,0.2,1.2,0.2,1.8V37z M134.4,36.5c0-1-0.2-1.7-0.6-2.2
		c-0.4-0.5-1.1-0.8-2-0.8c-0.4,0-0.8,0.1-1.2,0.3c-0.3,0.2-0.6,0.4-0.9,0.7s-0.4,0.6-0.5,1c-0.1,0.4-0.2,0.8-0.2,1.2H134.4z"/>
	<path fill="#6D7071" d="M145.9,33.2c0,0.2,0,0.3,0,0.4c0,0.1,0,0.2,0,0.3c0,0.1,0,0.1-0.1,0.1c0,0-0.1,0-0.1,0c-0.1,0-0.1,0-0.2,0
		c-0.1,0-0.2-0.1-0.3-0.1c-0.1,0-0.2-0.1-0.4-0.1c-0.1,0-0.3,0-0.4,0c-0.2,0-0.4,0-0.5,0.1c-0.2,0.1-0.4,0.2-0.6,0.4
		c-0.2,0.2-0.4,0.4-0.6,0.7c-0.2,0.3-0.4,0.6-0.7,1v6.5c0,0.1,0,0.1,0,0.1c0,0-0.1,0.1-0.1,0.1c-0.1,0-0.2,0.1-0.3,0.1
		c-0.1,0-0.3,0-0.5,0c-0.2,0-0.3,0-0.4,0c-0.1,0-0.2,0-0.3-0.1c-0.1,0-0.1-0.1-0.1-0.1c0,0,0-0.1,0-0.1v-9.9c0-0.1,0-0.1,0-0.1
		c0,0,0.1-0.1,0.1-0.1c0.1,0,0.1-0.1,0.3-0.1c0.1,0,0.2,0,0.4,0c0.2,0,0.3,0,0.4,0c0.1,0,0.2,0,0.2,0.1c0.1,0,0.1,0.1,0.1,0.1
		c0,0,0,0.1,0,0.1V34c0.3-0.4,0.5-0.7,0.8-1c0.2-0.2,0.5-0.4,0.7-0.6c0.2-0.1,0.4-0.2,0.6-0.3c0.2-0.1,0.4-0.1,0.6-0.1
		c0.1,0,0.2,0,0.3,0c0.1,0,0.2,0,0.4,0.1c0.1,0,0.3,0.1,0.4,0.1c0.1,0,0.2,0.1,0.2,0.1c0,0,0.1,0.1,0.1,0.1c0,0,0,0.1,0,0.1
		c0,0.1,0,0.1,0,0.2C145.9,32.9,145.9,33,145.9,33.2z"/>
	<path fill="#6D7071" d="M151.2,29.2c0,0.4-0.1,0.7-0.2,0.9c-0.2,0.2-0.5,0.2-0.9,0.2c-0.4,0-0.7-0.1-0.9-0.2
		c-0.2-0.2-0.2-0.4-0.2-0.9c0-0.4,0.1-0.7,0.2-0.9c0.2-0.2,0.5-0.2,0.9-0.2c0.4,0,0.7,0.1,0.9,0.2C151.1,28.5,151.2,28.8,151.2,29.2
		z M151,42.4c0,0.1,0,0.1,0,0.1c0,0-0.1,0.1-0.1,0.1c-0.1,0-0.2,0.1-0.3,0.1c-0.1,0-0.3,0-0.5,0c-0.2,0-0.3,0-0.4,0
		c-0.1,0-0.2,0-0.3-0.1c-0.1,0-0.1-0.1-0.1-0.1c0,0,0-0.1,0-0.1v-9.9c0-0.1,0-0.1,0-0.1c0,0,0.1-0.1,0.1-0.1c0.1,0,0.2-0.1,0.3-0.1
		c0.1,0,0.3,0,0.4,0c0.2,0,0.3,0,0.5,0c0.1,0,0.2,0,0.3,0.1c0.1,0,0.1,0.1,0.1,0.1c0,0,0,0.1,0,0.1V42.4z"/>
	<path fill="#6D7071" d="M163.9,37c0,0.3-0.1,0.5-0.2,0.6c-0.1,0.1-0.3,0.2-0.5,0.2h-6.5c0,0.5,0.1,1,0.2,1.5
		c0.1,0.4,0.3,0.8,0.6,1.1c0.3,0.3,0.6,0.6,1,0.7c0.4,0.2,0.9,0.3,1.5,0.3c0.5,0,0.9,0,1.3-0.1c0.4-0.1,0.7-0.2,1-0.3
		c0.3-0.1,0.5-0.2,0.7-0.3c0.2-0.1,0.3-0.1,0.4-0.1c0.1,0,0.1,0,0.1,0c0,0,0.1,0.1,0.1,0.1c0,0.1,0,0.1,0,0.2c0,0.1,0,0.2,0,0.3
		c0,0.1,0,0.2,0,0.2c0,0.1,0,0.1,0,0.2c0,0.1,0,0.1-0.1,0.1c0,0-0.1,0.1-0.1,0.1c0,0-0.2,0.1-0.4,0.2c-0.2,0.1-0.5,0.2-0.8,0.3
		s-0.7,0.2-1.1,0.2c-0.4,0.1-0.9,0.1-1.3,0.1c-0.8,0-1.5-0.1-2.1-0.3c-0.6-0.2-1.1-0.6-1.5-1c-0.4-0.4-0.7-1-0.9-1.7
		c-0.2-0.7-0.3-1.5-0.3-2.4c0-0.9,0.1-1.6,0.3-2.3c0.2-0.7,0.5-1.3,1-1.7c0.4-0.5,0.9-0.8,1.5-1.1c0.6-0.3,1.2-0.4,2-0.4
		c0.8,0,1.4,0.1,2,0.4c0.5,0.2,1,0.6,1.3,1c0.4,0.4,0.6,0.9,0.8,1.5c0.2,0.6,0.2,1.2,0.2,1.8V37z M162.1,36.5c0-1-0.2-1.7-0.6-2.2
		c-0.4-0.5-1.1-0.8-2-0.8c-0.5,0-0.8,0.1-1.2,0.3c-0.3,0.2-0.6,0.4-0.9,0.7s-0.4,0.6-0.5,1c-0.1,0.4-0.2,0.8-0.2,1.2H162.1z"/>
	<path fill="#6D7071" d="M174,39.7c0,0.5-0.1,1-0.3,1.4c-0.2,0.4-0.5,0.7-0.8,1c-0.3,0.3-0.8,0.5-1.2,0.6c-0.5,0.1-1,0.2-1.6,0.2
		c-0.4,0-0.7,0-1-0.1c-0.3-0.1-0.6-0.1-0.9-0.2c-0.3-0.1-0.5-0.2-0.6-0.3c-0.2-0.1-0.3-0.2-0.4-0.2c-0.1-0.1-0.1-0.2-0.2-0.3
		c0-0.1-0.1-0.3-0.1-0.5c0-0.1,0-0.3,0-0.4c0-0.1,0-0.2,0.1-0.2c0-0.1,0.1-0.1,0.1-0.1c0,0,0.1,0,0.1,0c0.1,0,0.2,0,0.4,0.1
		c0.2,0.1,0.4,0.2,0.6,0.3c0.2,0.1,0.5,0.2,0.8,0.3c0.3,0.1,0.7,0.1,1.1,0.1c0.3,0,0.6,0,0.8-0.1c0.2-0.1,0.5-0.2,0.6-0.3
		c0.2-0.1,0.3-0.3,0.4-0.5c0.1-0.2,0.1-0.4,0.1-0.7c0-0.3-0.1-0.5-0.2-0.7c-0.1-0.2-0.3-0.4-0.6-0.5c-0.2-0.1-0.5-0.3-0.8-0.4
		c-0.3-0.1-0.6-0.2-0.9-0.4c-0.3-0.1-0.6-0.3-0.9-0.4c-0.3-0.2-0.6-0.4-0.8-0.6c-0.2-0.2-0.4-0.5-0.6-0.8c-0.1-0.3-0.2-0.7-0.2-1.1
		c0-0.4,0.1-0.8,0.2-1.1c0.2-0.4,0.4-0.7,0.7-0.9c0.3-0.3,0.7-0.5,1.1-0.6c0.5-0.2,1-0.2,1.6-0.2c0.3,0,0.5,0,0.8,0.1
		s0.5,0.1,0.7,0.2c0.2,0.1,0.4,0.1,0.5,0.2c0.2,0.1,0.3,0.1,0.3,0.2c0.1,0.1,0.1,0.1,0.2,0.2c0,0,0,0.1,0.1,0.1c0,0.1,0,0.1,0,0.2
		c0,0.1,0,0.2,0,0.3c0,0.1,0,0.2,0,0.3c0,0.1,0,0.2-0.1,0.2c0,0.1-0.1,0.1-0.1,0.1c0,0-0.1,0-0.1,0c-0.1,0-0.2,0-0.3-0.1
		c-0.1-0.1-0.3-0.2-0.5-0.3c-0.2-0.1-0.4-0.2-0.7-0.3c-0.3-0.1-0.6-0.1-0.9-0.1c-0.3,0-0.6,0-0.8,0.1c-0.2,0.1-0.4,0.2-0.6,0.3
		c-0.2,0.1-0.3,0.3-0.3,0.5c-0.1,0.2-0.1,0.4-0.1,0.6c0,0.3,0.1,0.5,0.2,0.7c0.1,0.2,0.3,0.4,0.6,0.5c0.2,0.1,0.5,0.3,0.8,0.4
		c0.3,0.1,0.6,0.2,0.9,0.4c0.3,0.1,0.6,0.3,0.9,0.4c0.3,0.2,0.6,0.3,0.8,0.6c0.2,0.2,0.4,0.5,0.6,0.8C173.9,38.9,174,39.3,174,39.7z
		"/>
</g>
</svg>
